<svg xmlns="http://www.w3.org/2000/svg" viewBox="0 0 200 200" width="200" height="200">
  <!-- Background Circle -->
  <circle cx="100" cy="100" r="100" fill="#e0e0e0"/>
  
  <!-- Group Icon -->
  <g transform="translate(50, 50)" fill="#bdbdbd">
    <!-- Person 1 (left) -->
    <circle cx="30" cy="30" r="20"/>
    <path d="M30,55 C15,55 0,65 0,85 L60,85 C60,65 45,55 30,55 Z"/>
    
    <!-- Person 2 (right) -->
    <circle cx="70" cy="30" r="20"/>
    <path d="M70,55 C55,55 40,65 40,85 L100,85 C100,65 85,55 70,55 Z"/>
    
    <!-- Person 3 (center, back) -->
    <circle cx="50" cy="15" r="15"/>
    <path d="M50,35 C40,35 30,40 30,55 L70,55 C70,40 60,35 50,35 Z"/>
  </g>
</svg>